<?xml version="1.0" encoding="utf-8"?>
<svg version="1.1" id="Layer_1" xmlns="http://www.w3.org/2000/svg" xmlns:xlink="http://www.w3.org/1999/xlink" x="0px" y="0px"
	 viewBox="0 0 512 512" style="enable-background:new 0 0 512 512;" xml:space="preserve" height="24" width="24" fill="#aec600">
<g>
	<path d="M431.8,127.7c6.4,2.8,9.5,7.8,9.5,14.8V440c0,4.9-2.1,9.4-6.4,13.2c-4.2,3.9-9.2,5.8-14.8,5.8c-16.2,0-24.4-6.4-24.4-19.1
		V163.7c0-4.2-2.1-7.4-6.4-9.5L175.5,39.8c-11.3-3.5-23.3-1.8-36,5.3c-15.5,7.1-25.4,14.8-29.6,23.3l216,120.7
		c6.4,2.8,9.5,7.8,9.5,14.8v291.2c0,7.8-3.2,12.7-9.5,14.8c-2.1,1.4-4.9,2.1-8.5,2.1c-4.9,0-8.5-0.7-10.6-2.1
		c-2.8-2.1-38.5-24.5-106.9-67.2S94,376.8,87.7,373.3c-9.2-6.4-13.8-12.4-13.8-18L70.7,77.9c0-9.9,2.5-19.1,7.4-27.5
		c9.9-16.2,27.9-29.8,54-40.8s46.6-12.5,61.4-4.8L431.8,127.7"/>
</g>
</svg>
